<svg width="228.2" height="228.2" xmlns="http://www.w3.org/2000/svg" xml:space="preserve" version="1.1">

 <g>
  <title>Layer 1</title>
  <rect id="svg_1" fill="none" height="228.2" width="228.2" class="st0"/>
  <circle id="svg_2" fill="#FFFFFF" r="37.4" cy="114.1" cx="114.1" class="st1"/>
  <text id="svg_3" transform="matrix(1 0 0 1 79 186)">
   <tspan id="svg_4" font-size="12px" font-family="'MyriadPro-Regular'" stroke-miterlimit="10" stroke="#AFAFAF" fill="#FFFFFF" class="st2 st3 st4" y="0" x="0"/>
   <tspan id="svg_5" font-size="16px" stroke-miterlimit="10" stroke-width="0.5" stroke="#AFAFAF" fill="#FFFFFF" font-family="'MyriadPro-Regular'" class="st5 st3 st6" y="0" x="17.8">FLOUR</tspan>
  </text>
  <g id="svg_6">
   <path id="svg_7" fill="#A20068" d="m183.1,74.6c-2.7,2.8 -6.1,4.5 -9.4,4.5c-0.5,0 -1.1,0 -1.6,-0.1c-8.9,-1.1 -23.1,-5.5 -33.6,-12.6c-0.4,-0.3 -0.9,-0.4 -1.3,-0.4c-3.1,0 -8.1,5.3 -12.5,10c-6.5,6.9 -13.9,14.7 -22,14.7c-0.7,0 -1.4,-0.1 -2.1,-0.2c-5.3,-0.7 -9.5,-6.7 -13.9,-13.1c-3.5,-5 -7.7,-10.9 -10.7,-11.1c-2.3,-0.1 -6.3,3.6 -9.7,6.3c-6,4.8 -12.2,9.8 -18,9.8l0,0c-1.9,0 -3.7,-0.6 -5.2,-1.7c0,0 -0.1,-0.1 -0.1,-0.1c-0.9,-0.8 -1.7,-1.7 -2.3,-2.7c-8,13.3 -12.7,28.8 -12.7,45.5c0,28.8 13.9,54.3 35.2,70l99.6,0c21.3,-15.7 35.2,-41.2 35.2,-70c0,-18.1 -5.5,-34.9 -14.9,-48.8zm-21.3,65.5c0,7.8 -6.6,14.2 -14.8,14.2l-12.6,0c-3.3,3.6 -8,5.8 -13.4,5.8l-16,0c-5.3,0 -10.1,-2.3 -13.4,-5.8l-12.6,0c-8.2,0 -14.8,-6.3 -14.8,-14.2l0,-12.8c0,-7.8 6.6,-14.2 14.8,-14.2l12.6,0c3.3,-3.6 8,-5.8 13.4,-5.8l16,0c5.3,0 10.1,2.3 13.4,5.8l12.6,0c8.2,0 14.8,6.3 14.8,14.2l0,12.8z" class="st7"/>
   <path id="svg_8" fill="#A20068" d="m193.7,48.5l0,-5.1c0,-6 -5.1,-10.9 -11.3,-10.9l-138.8,0c-6.3,0 -11.3,4.9 -11.3,10.9l0,5.1c0,4.4 2.7,8.3 6.9,10c1.4,0.6 2.9,0.9 4.4,0.9l1.1,0l-0.1,1.1c-1.1,8.1 -0.3,13.6 2.3,15.9c0.4,0.3 0.9,0.4 1.4,0.4c3.6,0 9.7,-4.9 14.2,-8.5c3.8,-3.1 7.2,-5.7 10.2,-6.9c1,-0.4 2.2,-0.7 3.3,-0.7c6.2,0 10.7,6.5 15.6,13.5c2.9,4.1 7.2,10.3 9.8,10.6c0,0 0.1,0 0.1,0c0.4,0.1 0.7,0.1 1.1,0.1c5.5,0 11.9,-6.8 17.6,-12.8c6,-6.4 11.2,-11.8 16.9,-11.8c1.7,0 3.3,0.5 4.7,1.5c9.6,6.5 22.8,10.6 31,11.6c0,0 0.1,0 0.2,0c0.2,0 0.4,0.1 0.6,0.1c2,0 4.4,-1.5 6,-3.7c1.9,-2.6 2.6,-5.8 2.1,-9.2l-0.2,-1.1l1.1,0c1.5,0 3,-0.4 4.4,-1c4.1,-1.8 6.7,-5.7 6.7,-10z" class="st7"/>
  </g>
  <text id="svg_9" transform="matrix(1 0 0 1 65 141)">
   <tspan id="svg_10" font-size="18px" font-family="'MyriadPro-Regular'" class="st3 st8" y="0" x="0"/>
   <tspan id="svg_11" font-size="21px" fill="#C63100" font-family="'MyriadPro-Regular'" class="st9 st3 st10" y="0" x="15.3">SUGAR</tspan>
  </text>
  <rect id="svg_12" height="25" width="73" y="120.60001" x="80.09998" stroke="#000" fill="#fff"/>
  <rect stroke="#000" stroke-width="0" id="svg_14" height="31" width="82" y="117.60001" x="76.09998" fill="#fff"/>
  <text xml:space="preserve" text-anchor="start" font-family="Noto Sans JP" font-size="24" id="svg_15" y="141.60001" x="102.09998" stroke-width="0" stroke="#000" fill="#000000">糖</text>
 </g>
</svg>